ModelForces
version=1
nRows=4
nColumns=155
inDegrees=no

This file contains the forces exerted on a model during a simulation.

A force is a generalized force, meaning that it can be either a force (N) or a torque (Nm).

Units are S.I. units (second, meters, Newtons, ...)
Angles are in degrees.

endheader
time	glut_med1_r	glut_med2_r	glut_med3_r	glut_min1_r	glut_min2_r	glut_min3_r	semimem_r	semiten_r	bifemlh_r	bifemsh_r	sar_r	add_long_r	add_brev_r	add_mag1_r	add_mag2_r	add_mag3_r	tfl_r	pect_r	grac_r	glut_max1_r	glut_max2_r	glut_max3_r	iliacus_r	psoas_r	quad_fem_r	gem_r	peri_r	rect_fem_r	vas_med_r	vas_int_r	vas_lat_r	med_gas_r	lat_gas_r	soleus_r	tib_post_r	flex_dig_r	flex_hal_r	tib_ant_r	per_brev_r	per_long_r	per_tert_r	ext_dig_r	ext_hal_r	glut_med1_l	glut_med2_l	glut_med3_l	glut_min1_l	glut_min2_l	glut_min3_l	semimem_l	semiten_l	bifemlh_l	bifemsh_l	sar_l	add_long_l	add_brev_l	add_mag1_l	add_mag2_l	add_mag3_l	tfl_l	pect_l	grac_l	glut_max1_l	glut_max2_l	glut_max3_l	iliacus_l	psoas_l	quad_fem_l	gem_l	peri_l	rect_fem_l	vas_med_l	vas_int_l	vas_lat_l	med_gas_l	lat_gas_l	soleus_l	tib_post_l	flex_dig_l	flex_hal_l	tib_ant_l	per_brev_l	per_long_l	per_tert_l	ext_dig_l	ext_hal_l	ercspn_r	ercspn_l	intobl_r	intobl_l	extobl_r	extobl_l	femur_lat_meniscii_r.femur_lat_r.force.X	femur_lat_meniscii_r.femur_lat_r.force.Y	femur_lat_meniscii_r.femur_lat_r.force.Z	femur_lat_meniscii_r.femur_lat_r.torque.X	femur_lat_meniscii_r.femur_lat_r.torque.Y	femur_lat_meniscii_r.femur_lat_r.torque.Z	femur_lat_meniscii_r.meniscus_lat_r.force.X	femur_lat_meniscii_r.meniscus_lat_r.force.Y	femur_lat_meniscii_r.meniscus_lat_r.force.Z	femur_lat_meniscii_r.meniscus_lat_r.torque.X	femur_lat_meniscii_r.meniscus_lat_r.torque.Y	femur_lat_meniscii_r.meniscus_lat_r.torque.Z	femur_med_meniscii_r.femur_med_r.force.X	femur_med_meniscii_r.femur_med_r.force.Y	femur_med_meniscii_r.femur_med_r.force.Z	femur_med_meniscii_r.femur_med_r.torque.X	femur_med_meniscii_r.femur_med_r.torque.Y	femur_med_meniscii_r.femur_med_r.torque.Z	femur_med_meniscii_r.meniscus_med_r.force.X	femur_med_meniscii_r.meniscus_med_r.force.Y	femur_med_meniscii_r.meniscus_med_r.force.Z	femur_med_meniscii_r.meniscus_med_r.torque.X	femur_med_meniscii_r.meniscus_med_r.torque.Y	femur_med_meniscii_r.meniscus_med_r.torque.Z	femur_med_tibia_r.tibia_upper_r.force.X	femur_med_tibia_r.tibia_upper_r.force.Y	femur_med_tibia_r.tibia_upper_r.force.Z	femur_med_tibia_r.tibia_upper_r.torque.X	femur_med_tibia_r.tibia_upper_r.torque.Y	femur_med_tibia_r.tibia_upper_r.torque.Z	femur_med_tibia_r.femur_med_r.force.X	femur_med_tibia_r.femur_med_r.force.Y	femur_med_tibia_r.femur_med_r.force.Z	femur_med_tibia_r.femur_med_r.torque.X	femur_med_tibia_r.femur_med_r.torque.Y	femur_med_tibia_r.femur_med_r.torque.Z	femur_lat_tibia_r.tibia_upper_r.force.X	femur_lat_tibia_r.tibia_upper_r.force.Y	femur_lat_tibia_r.tibia_upper_r.force.Z	femur_lat_tibia_r.tibia_upper_r.torque.X	femur_lat_tibia_r.tibia_upper_r.torque.Y	femur_lat_tibia_r.tibia_upper_r.torque.Z	femur_lat_tibia_r.femur_lat_r.force.X	femur_lat_tibia_r.femur_lat_r.force.Y	femur_lat_tibia_r.femur_lat_r.force.Z	femur_lat_tibia_r.femur_lat_r.torque.X	femur_lat_tibia_r.femur_lat_r.torque.Y	femur_lat_tibia_r.femur_lat_r.torque.Z	aACL_R	pACL_R	aPCL_R	pPCL_R	aMCL_R	mMCL_R	pMCL_R	aLCL_R	mLCL_R	pLCL_R	aPCL_L	pPCL_L	aMCL_L	aLCL_L
      0.10654299	      7.08927744	     11.46096264	     12.35885444	      5.22783955	      5.98948121	      6.63740415	    115.87723852	    168.89409398	    233.32206234	    368.63594038	    125.78926192	     11.44881571	      8.09134901	      0.00000000	      4.87939561	      8.61083478	      5.04153559	      0.00000000	    100.29970186	      7.40897521	     11.28583825	      8.51845106	     33.33876498	     25.13132198	      7.09664316	      4.61122892	      3.80317252	     39.08653450	      0.00000000	      0.00000000	      0.00000000	     20.85192128	      0.91626630	      0.00000000	      0.63035467	      2.85846141	      0.29321593	     30.52094973	      2.37426324	      3.87530091	      9.38657884	     17.37573646	      5.46606800	      7.08927744	     11.46096264	     12.35885444	      5.22783955	      5.98948121	      6.63740415	      0.00000000	      8.64554943	     14.92658193	     14.40679140	      2.97870120	     11.44881571	      8.09134901	      0.00000000	      4.87939561	      8.61083478	      6.92301796	      0.00000000	      3.09104222	      7.40897521	     11.28583825	      8.51845106	     33.33876498	     25.13132198	      7.09664316	      4.61122892	      3.80317252	     23.73762575	      0.00000000	      0.00000000	      0.00000000	     15.65672717	      8.20599177	     57.98686877	     57.92281641	      8.06198537	      7.46720616	     16.86610391	      9.54008531	     21.87506988	      3.87859875	     11.39995140	      3.85740229	     49.24059506	     49.24059506	     18.71443023	     18.71443023	     35.62959435	     35.62959435	     58.82396361	    269.95553488	     41.52719953	    -23.60654949	      1.53055586	     23.27478194	    -58.82396361	   -269.95553488	    -41.52719953	      8.33397862	     -2.06664786	      1.84403582	    -31.38886266	     59.53898667	      5.45993464	     -0.81454038	      0.75198185	    -12.84881404	     31.38886266	    -59.53898667	     -5.45993464	     -1.13981966	     -0.73516827	      1.42995895	    -83.99362106	   -501.10625382	    113.91314289	    -11.88077220	      2.16370014	      0.78635408	     83.99362106	    501.10625382	   -113.91314289	     56.54544495	     -1.24062448	     36.20767907	    -41.59136020	   -157.60320414	    -39.85990351	      5.40387660	     -1.46839382	      0.16647906	     41.59136020	    157.60320414	     39.85990351	    -20.28977723	      0.98700815	     17.26940806	     10.25402573	    -11.01797697	      0.00000000	     54.36615224	      0.00000000	      0.00000000	    -37.64117640	      0.00000000	      0.00000000	      0.00000000	      0.00000000	      0.00000000	      0.00000001	      0.00000000
      0.10731382	      7.90711883	     11.40154661	     12.29526818	      5.20158889	      5.96053210	      6.61017294	    115.58626748	    168.66153873	    231.78871806	    367.42140349	    125.94771400	     11.38853876	      8.05108306	      0.00000000	      4.86625406	      8.56484874	      5.04276126	      0.05694922	    100.35447485	      7.37075473	     11.22664907	      8.47320378	     33.22701569	     25.00410486	      7.08089964	      4.59294741	      3.95971678	     38.94446424	      0.00000000	      0.00000000	      0.00000000	     22.18196090	      0.86804674	      0.00000000	      0.00522037	      2.54376063	      0.11903395	     30.35111348	      2.58856749	      3.96672523	      7.81305545	     17.31036793	      5.44251050	      7.90711883	     11.40154661	     12.29526818	      5.20158889	      5.96053210	      6.61017294	      0.00000000	      8.59834747	     14.92159915	     14.33288234	      2.96381120	     11.38853876	      8.05108306	      0.00000000	      4.86625406	      8.56484874	      6.89600230	      0.05694922	      3.07533495	      7.37075473	     11.22664907	      8.47320378	     33.22701569	     25.00410486	      7.08089964	      4.59294741	      3.95971678	     23.62549270	      0.00000000	      0.00000000	      0.00000000	     15.95328788	      8.31552546	     58.03960593	     57.84115966	      7.97955976	      7.37922995	     16.84605091	      9.50829109	     21.84226826	      3.85922327	     11.49093859	      3.88825689	     48.99283034	     48.99283034	     18.61397322	     18.61397322	     35.53696826	     35.53696826	     55.72374739	    269.34824794	     42.06963629	    -23.81582888	      1.44752313	     21.94651262	    -55.72374739	   -269.34824794	    -42.06963629	      8.32537720	     -1.98493284	      2.01224880	    -30.95241535	     59.88676379	      6.24955619	     -1.13201593	      0.73623050	    -12.67593815	     30.95241535	    -59.88676379	     -6.24955619	     -1.12545805	     -0.72985582	      1.43417491	    -88.58354540	   -501.37361698	    112.88124193	    -11.85170600	      2.24217854	      0.68792971	     88.58354540	    501.37361698	   -112.88124193	     56.10560868	     -1.32342696	     38.12104618	    -39.60708928	   -149.28527196	    -37.94494378	      5.11777801	     -1.40476125	      0.18574855	     39.60708928	    149.28527196	     37.94494378	    -19.29528339	      0.94345200	     16.42770070	      9.79016384	    -11.36551820	      0.00000000	     55.59518468	      0.00000000	      0.00000000	    -37.57512782	      0.00000000	      0.00000000	      0.00000000	      0.00000000	      0.00000000	      0.00000001	      0.00000000
      0.10808465	      8.60967155	     11.34272475	     12.23221149	      5.17561413	      5.93189050	      6.58269448	    115.26554551	    168.43201797	    230.06720984	    365.85521275	    126.05563449	     11.32890288	      8.01123891	      0.00000000	      4.85222954	      8.51924422	      5.04406034	      2.08558699	    100.35481322	      7.33287337	     11.16807852	      8.42843559	     33.11647866	     24.87825921	      7.06236841	      4.57484972	      4.10734647	     38.79248537	      0.00000000	      0.00000000	      0.00000000	     23.62026578	      0.83096752	      0.00000000	      0.00000000	      2.23324103	      0.00000000	     30.18661883	      2.82164220	      4.07852745	     10.06504305	     17.24738744	      5.41970386	      8.60967155	     11.34272475	     12.23221149	      5.17561413	      5.93189050	      6.58269448	      0.00000000	      8.55164717	     14.91491880	     14.25975582	      2.94907744	     11.32890288	      8.01123891	      0.00000000	      4.85222954	      8.51924422	      6.86916990	      2.08558699	      3.05979342	      7.33287337	     11.16807852	      8.42843559	     33.11647866	     24.87825921	      7.06236841	      4.57484972	      4.10734647	     23.51356111	      0.00000000	      0.00000000	      0.00000000	     16.23729212	      8.42039576	     58.08137530	     57.75830361	      7.89872731	      7.29291442	     16.82390628	      9.47608655	     21.80852219	      3.84004339	     11.57592380	      3.91568933	     48.74767136	     48.74767136	     18.51458208	     18.51458208	     35.44535524	     35.44535524	     54.59879995	    271.29854659	     42.36916894	    -24.00062973	      1.41497339	     21.44844740	    -54.59879995	   -271.29854659	    -42.36916894	      8.39089340	     -1.95602645	      2.13142932	    -30.70091330	     60.94224308	      7.13744296	     -1.48060891	      0.72806076	    -12.56940501	     30.70091330	    -60.94224308	     -7.13744296	     -1.11599753	     -0.73284900	      1.44127634	    -92.07266518	   -502.71527653	    113.04814371	    -11.88677503	      2.31823338	      0.65138819	     92.07266518	    502.71527653	   -113.04814371	     56.19103655	     -1.38920313	     39.56377136	    -37.74129707	   -141.90974806	    -35.95354654	      4.85065237	     -1.34338298	      0.20931349	     37.74129707	    141.90974806	     35.95354654	    -18.28786695	      0.90284959	     15.63485055	      9.22265556	    -11.78297982	      0.00000000	     56.90732827	      0.00000000	      0.00000000	    -37.81455522	      0.00000000	      0.00000000	      0.00000000	      0.00000000	      0.00000000	      0.00000001	      0.00000000
      0.10925308	      9.49897386	     11.25469038	     12.13765991	      5.13676098	      5.88905438	      6.54064800	    114.71870309	    168.07215597	    227.15809758	    363.11746842	    126.15898169	     11.23971352	      7.95163728	      0.00000000	      4.82948291	      8.45084903	      5.04601235	      3.25044491	    100.28713621	      7.27610744	     11.08046480	      8.36147852	     32.95120773	     24.69008339	      7.02994008	      4.54776548	      4.31550347	     38.54592529	      0.00000000	      0.00000000	      0.00000000	     26.00553059	      0.79464310	      0.00000000	      0.00000000	      1.77590800	      0.00000000	     29.92669749	      3.20188369	      4.27635539	      0.00000000	     17.23734726	      5.38468487	      9.49897386	     11.25469038	     12.13765991	      5.13676098	      5.88905438	      6.54064800	      0.00000000	      8.48180319	     14.90162106	     14.15038367	      2.92703813	     11.23971352	      7.95163728	      0.00000000	      4.82948291	      8.45084903	      6.82885297	      3.25044491	      3.03654755	      7.27610744	     11.08046480	      8.36147852	     32.95120773	     24.69008339	      7.02994008	      4.54776548	      4.31550347	     23.34437026	      0.00000000	      0.00000000	      0.00000000	     16.64502964	      8.57085286	     58.12475057	     57.63052074	      7.77936269	      7.16545044	     16.78649999	      9.42654428	     21.75560854	      3.81134080	     11.69229681	      3.95042248	     48.38096477	     48.38096477	     18.36593190	     18.36593190	     35.30839410	     35.30839410	     50.81047034	    271.06563833	     42.64272649	    -24.10785173	      1.30613297	     19.81261009	    -50.81047034	   -271.06563833	    -42.64272649	      8.37967716	     -1.84700437	      2.36626254	    -29.17749519	     61.17745983	      8.14630219	     -1.89112002	      0.68982798	    -11.94267781	     29.17749519	    -61.17745983	     -8.14630219	     -1.09365207	     -0.71087591	      1.41022854	    -97.97779786	   -504.36659928	    112.92748829	    -11.91078933	      2.43743622	      0.57735316	     97.97779786	    504.36659928	   -112.92748829	     56.14868792	     -1.49712777	     42.00388313	    -35.80555388	   -131.98164263	    -33.43662575	      4.49621016	     -1.27518945	      0.21658076	     35.80555388	    131.98164263	     33.43662575	    -16.99931452	      0.85962531	     14.81266944	      8.33392055	    -12.37426267	      0.00000000	     59.94824306	      0.00000000	      0.00000000	    -38.12244937	      0.00000000	      0.00000000	      0.00000000	      0.00000000	      0.00000000	      0.00000001	      0.00000000
